HIERARCHY
ROOT hip
{
  OFFSET 5.70873 43.8894 -1.52928
  CHANNELS 6 Xposition Yposition Zposition Zrotation Xrotation Yrotation
  JOINT abdomen
  {
    OFFSET 0 5.99393 0.287273
    CHANNELS 6 Xposition Yposition Zposition Zrotation Xrotation Yrotation
    JOINT chest
    {
      OFFSET 0 6.65865 -0.856112
      CHANNELS 6 Xposition Yposition Zposition Zrotation Xrotation Yrotation
      JOINT neck
      {
        OFFSET 0 8.65624 -1.42685
        CHANNELS 6 Xposition Yposition Zposition Zrotation Xrotation Yrotation
        JOINT head
        {
          OFFSET 0 3.80999 -0.190247
          CHANNELS 6 Xposition Yposition Zposition Zrotation Xrotation Yrotation
          End Site
          {
            OFFSET 0 0 0
          }
        }
      }
      JOINT rCollar
      {
        OFFSET -1.4963 7.5744 -1.52136
        CHANNELS 6 Xposition Yposition Zposition Zrotation Xrotation Yrotation
        JOINT rShldr
        {
          OFFSET -5.47506 -0.905672 0.485692
          CHANNELS 6 Xposition Yposition Zposition Zrotation Xrotation Yrotation
          JOINT rForeArm
          {
            OFFSET -11.3069 -0.201091 0.618544
            CHANNELS 6 Xposition Yposition Zposition Zrotation Xrotation Yrotation
            JOINT rHand
            {
              OFFSET -9.61414 -0.254739 3.48553
              CHANNELS 6 Xposition Yposition Zposition Zrotation Xrotation Yrotation
              JOINT rThumb1
              {
                OFFSET 0.176263 -0.07068 1.26622
                CHANNELS 6 Xposition Yposition Zposition Zrotation Xrotation Yrotation
                JOINT rThumb2
                {
                  OFFSET -1.04683 -0.546484 1.82182
                  CHANNELS 6 Xposition Yposition Zposition Zrotation Xrotation Yrotation
                  JOINT rThumb3
                  {
                    OFFSET -0.993472 -0.621916 0.655506
                    CHANNELS 6 Xposition Yposition Zposition Zrotation Xrotation Yrotation
                    End Site
                    {
                      OFFSET -0.996134 -0.66263 0.644615
                    }
                  }
                }
              }
              JOINT rIndex1
              {
                OFFSET -2.64253 0.566363 2.4162
                CHANNELS 6 Xposition Yposition Zposition Zrotation Xrotation Yrotation
                JOINT rIndex2
                {
                  OFFSET -1.39394 -0.635138 0.899356
                  CHANNELS 6 Xposition Yposition Zposition Zrotation Xrotation Yrotation
                  JOINT rIndex3
                  {
                    OFFSET -0.622395 -0.856016 0.402182
                    CHANNELS 6 Xposition Yposition Zposition Zrotation Xrotation Yrotation
                    End Site
                    {
                      OFFSET -0.472476 -0.801802 0.34216
                    }
                  }
                }
              }
              JOINT rMid1
              {
                OFFSET -3.20814 0.514427 1.52547
                CHANNELS 6 Xposition Yposition Zposition Zrotation Xrotation Yrotation
                JOINT rMid2
                {
                  OFFSET -1.56545 -0.497974 0.68919
                  CHANNELS 6 Xposition Yposition Zposition Zrotation Xrotation Yrotation
                  JOINT rMid3
                  {
                    OFFSET -0.679943 -1.17582 0.444246
                    CHANNELS 6 Xposition Yposition Zposition Zrotation Xrotation Yrotation
                    End Site
                    {
                      OFFSET -0.343874 -0.941341 0.267611
                    }
                  }
                }
              }
              JOINT rRing1
              {
                OFFSET -3.47877 0.200518 0.597719
                CHANNELS 6 Xposition Yposition Zposition Zrotation Xrotation Yrotation
                JOINT rRing2
                {
                  OFFSET -1.28208 -0.53155 0.44672
                  CHANNELS 6 Xposition Yposition Zposition Zrotation Xrotation Yrotation
                  JOINT rRing3
                  {
                    OFFSET -0.710288 -0.970167 0.4032
                    CHANNELS 6 Xposition Yposition Zposition Zrotation Xrotation Yrotation
                    End Site
                    {
                      OFFSET -0.403228 -0.950952 0.378354
                    }
                  }
                }
              }
              JOINT rPinky1
              {
                OFFSET -3.42483 -0.278904 -0.240415
                CHANNELS 6 Xposition Yposition Zposition Zrotation Xrotation Yrotation
                JOINT rPinky2
                {
                  OFFSET -1.05787 -0.635999 0.156459
                  CHANNELS 6 Xposition Yposition Zposition Zrotation Xrotation Yrotation
                  JOINT rPinky3
                  {
                    OFFSET -0.42815 -0.754232 0.287187
                    CHANNELS 6 Xposition Yposition Zposition Zrotation Xrotation Yrotation
                    End Site
                    {
                      OFFSET -0.235717 -0.725605 0.279416
                    }
                  }
                }
              }
            }
          }
        }
      }
      JOINT lCollar
      {
        OFFSET 1.4963 7.5744 -1.52136
        CHANNELS 6 Xposition Yposition Zposition Zrotation Xrotation Yrotation
        JOINT lShldr
        {
          OFFSET 5.47506 -0.905672 0.485692
          CHANNELS 6 Xposition Yposition Zposition Zrotation Xrotation Yrotation
          JOINT lForeArm
          {
            OFFSET 11.3069 -0.201091 0.618544
            CHANNELS 6 Xposition Yposition Zposition Zrotation Xrotation Yrotation
            JOINT lHand
            {
              OFFSET 9.61414 -0.254739 3.48553
              CHANNELS 6 Xposition Yposition Zposition Zrotation Xrotation Yrotation
              JOINT lThumb1
              {
                OFFSET -0.176263 -0.07068 1.26622
                CHANNELS 6 Xposition Yposition Zposition Zrotation Xrotation Yrotation
                JOINT lThumb2
                {
                  OFFSET 1.04683 -0.546484 1.82182
                  CHANNELS 6 Xposition Yposition Zposition Zrotation Xrotation Yrotation
                  JOINT lThumb3
                  {
                    OFFSET 0.993472 -0.621916 0.655506
                    CHANNELS 6 Xposition Yposition Zposition Zrotation Xrotation Yrotation
                    End Site
                    {
                      OFFSET 0.996134 -0.66263 0.644615
                    }
                  }
                }
              }
              JOINT lIndex1
              {
                OFFSET 2.64253 0.566363 2.4162
                CHANNELS 6 Xposition Yposition Zposition Zrotation Xrotation Yrotation
                JOINT lIndex2
                {
                  OFFSET 1.39394 -0.635138 0.899356
                  CHANNELS 6 Xposition Yposition Zposition Zrotation Xrotation Yrotation
                  JOINT lIndex3
                  {
                    OFFSET 0.622395 -0.856016 0.402182
                    CHANNELS 6 Xposition Yposition Zposition Zrotation Xrotation Yrotation
                    End Site
                    {
                      OFFSET 0.472476 -0.801802 0.34216
                    }
                  }
                }
              }
              JOINT lMid1
              {
                OFFSET 3.20814 0.514427 1.52547
                CHANNELS 6 Xposition Yposition Zposition Zrotation Xrotation Yrotation
                JOINT lMid2
                {
                  OFFSET 1.56545 -0.497974 0.68919
                  CHANNELS 6 Xposition Yposition Zposition Zrotation Xrotation Yrotation
                  JOINT lMid3
                  {
                    OFFSET 0.679943 -1.17582 0.444246
                    CHANNELS 6 Xposition Yposition Zposition Zrotation Xrotation Yrotation
                    End Site
                    {
                      OFFSET 0.343874 -0.941341 0.267611
                    }
                  }
                }
              }
              JOINT lRing1
              {
                OFFSET 3.47877 0.200518 0.597719
                CHANNELS 6 Xposition Yposition Zposition Zrotation Xrotation Yrotation
                JOINT lRing2
                {
                  OFFSET 1.28208 -0.53155 0.44672
                  CHANNELS 6 Xposition Yposition Zposition Zrotation Xrotation Yrotation
                  JOINT lRing3
                  {
                    OFFSET 0.710288 -0.970167 0.4032
                    CHANNELS 6 Xposition Yposition Zposition Zrotation Xrotation Yrotation
                    End Site
                    {
                      OFFSET 0.403228 -0.950952 0.378354
                    }
                  }
                }
              }
              JOINT lPinky1
              {
                OFFSET 3.42483 -0.278904 -0.240415
                CHANNELS 6 Xposition Yposition Zposition Zrotation Xrotation Yrotation
                JOINT lPinky2
                {
                  OFFSET 1.05787 -0.635999 0.156459
                  CHANNELS 6 Xposition Yposition Zposition Zrotation Xrotation Yrotation
                  JOINT lPinky3
                  {
                    OFFSET 0.42815 -0.754232 0.287187
                    CHANNELS 6 Xposition Yposition Zposition Zrotation Xrotation Yrotation
                    End Site
                    {
                      OFFSET 0.235717 -0.725605 0.279416
                    }
                  }
                }
              }
            }
          }
        }
      }
    }
  }
  JOINT rThigh
  {
    OFFSET -4.17848 -1.02486 0.046356
    CHANNELS 6 Xposition Yposition Zposition Zrotation Xrotation Yrotation
    JOINT rShin
    {
      OFFSET 1.27155 -17.465 -0.237699
      CHANNELS 6 Xposition Yposition Zposition Zrotation Xrotation Yrotation
      JOINT rFoot
      {
        OFFSET 0.529163 -17.3815 -1.19582
        CHANNELS 6 Xposition Yposition Zposition Zrotation Xrotation Yrotation
        JOINT rToe
        {
          OFFSET -0.711591 -4.4863 4.0596
          CHANNELS 6 Xposition Yposition Zposition Zrotation Xrotation Yrotation
          End Site
          {
            OFFSET -0.869915 -1.10655 1.99006
          }
        }
      }
    }
  }
  JOINT lThigh
  {
    OFFSET 4.17848 -1.02486 0.046356
    CHANNELS 6 Xposition Yposition Zposition Zrotation Xrotation Yrotation
    JOINT lShin
    {
      OFFSET -1.27155 -17.465 -0.237699
      CHANNELS 6 Xposition Yposition Zposition Zrotation Xrotation Yrotation
      JOINT lFoot
      {
        OFFSET -0.529163 -17.3815 -1.19582
        CHANNELS 6 Xposition Yposition Zposition Zrotation Xrotation Yrotation
        JOINT lToe
        {
          OFFSET 0.711591 -4.4863 4.0596
          CHANNELS 6 Xposition Yposition Zposition Zrotation Xrotation Yrotation
          End Site
          {
            OFFSET 0.869915 -1.10655 1.99006
          }
        }
      }
    }
  }
}
MOTION
Frames:	4
Frame Time:	0.0333333
-12.9873 6.69427 26.5182 10.1807 -64.7109 21.1565 0 5.99393 0.287273 -0.172977 -11.735 0.565899 0 6.65865 -0.856112 -0.232131 -23.4711 1.1316 0 8.65624 -1.42685 0.374474 -0.655559 -5.68353 -3.55271e-015 3.80999 -0.190247 17.7696 4.87549 -1.56817 -1.4963 7.5744 -1.52136 -21.1026 -0.089497 -2.50509 -5.47506 -0.905672 0.485692 58.1287 -3.18259 79.5725 -11.3069 -0.201091 0.618544 -3.05528 -5.25811 35.0586 -9.61414 -0.254739 3.48553 5.24183 -10.2075 37.477 0.176263 -0.07068 1.26622 -19.5564 47.1206 31.2749 -1.04683 -0.546484 1.82182 4.64751 -3.91595 12.6941 -0.993472 -0.621916 0.655506 -6.69358 11.6018 -27.2269 -2.64253 0.566363 2.4162 22.6624 6.19456 -14.3657 -1.39394 -0.635138 0.899356 39.7253 7.68605 -8.77027 -0.622395 -0.856016 0.402182 40.5678 7.77386 -9.00291 -3.20814 0.514427 1.52547 6.20245 0.646539 -2.1029 -1.56545 -0.497974 0.68919 51.7974 10.4666 -12.7907 -0.679943 -1.17582 0.444246 14.547 4.13122 -2.59421 -3.47877 0.200518 0.597719 13.4234 -1.35174 -5.37479 -1.28208 -0.53155 0.44672 20.461 6.18706 -4.84312 -0.710288 -0.970167 0.4032 22.0752 6.58732 -5.30758 -3.42483 -0.278904 -0.240415 -11.5768 -9.15206 -6.3098 -1.05787 -0.635999 0.156459 21.1476 6.99532 -4.85964 -0.42815 -0.754232 0.287187 10.7638 3.81196 -2.17124 1.4963 7.5744 -1.52136 5.16433 -1.47315 -15.364 5.47506 -0.905672 0.485692 -58.7069 -1.92798 -59.1739 11.3069 -0.201091 0.618544 -22.0953 -27.7835 -79.627 9.61414 -0.254739 3.48553 -7.21123 22.154 -28.6555 -0.176263 -0.07068 1.26622 24.2781 38.4816 -35.502 1.04683 -0.546484 1.82182 -6.53175 -1.24815 -11.4633 0.993472 -0.621916 0.655506 6.45119 2.66726 11.8095 2.64253 0.566363 2.4162 -5.18978 4.48317 12.5249 1.39394 -0.635138 0.899356 -36.9452 6.74327 17.0314 0.622395 -0.856016 0.402182 -38.0065 6.76576 17.556 3.20814 0.514427 1.52547 -1.48521 -0.683625 1.67103 1.56545 -0.497974 0.68919 -44.4871 8.35711 21.4001 0.679943 -1.17582 0.444246 -9.36074 3.19837 3.99257 3.47877 0.200518 0.597719 -8.07663 -2.6376 5.99018 1.28208 -0.53155 0.44672 -14.7811 5.15021 7.29472 0.710288 -0.970167 0.4032 -16.28 5.55275 8.08525 3.42483 -0.278904 -0.240415 11.7678 -11.303 2.60131 1.05787 -0.635999 0.156459 -18.896 6.82258 9.38286 0.42815 -0.754232 0.287187 -9.18837 3.76098 4.34943 -4.17848 -1.02486 0.046356 -30.9883 -17.6579 -9.06826 1.27155 -17.465 -0.237699 0.678002 0.126507 4.70105 0.529163 -17.3815 -1.19582 14.5009 21.4031 -2.6197 -0.711591 -4.4863 4.0596 1.29313 9.22632 -0.352781 4.17848 -1.02486 0.046356 41.809 -40.2046 19.7399 -1.27155 -17.465 -0.237699 0.649407 24.5154 -1.77231 -0.529163 -17.3815 -1.19582 -9.60064 15.6748 -15.4509 0.711591 -4.4863 4.0596 0.188386 -1.52668 0.0793091 
-12.9886 6.68654 26.5503 10.349 -64.9144 21.2139 0 5.99393 0.287273 -0.0886903 -11.5956 0.606115 0 6.65865 -0.856112 -0.0506861 -23.1915 1.23262 -3.55271e-015 8.65624 -1.42685 0.472843 -1.04584 -5.40235 3.55271e-015 3.80999 -0.190247 17.9366 4.89479 -1.43954 -1.4963 7.5744 -1.52136 -21.1144 -0.0990599 -2.2251 -5.47506 -0.905672 0.485692 58.1223 -3.32062 79.8398 -11.3069 -0.201091 0.618544 -3.00514 -5.58864 34.7019 -9.61414 -0.254739 3.48553 5.25554 -9.62343 37.5755 0.176263 -0.07068 1.26622 -19.5564 47.1206 31.2749 -1.04683 -0.546484 1.82182 4.64751 -3.91595 12.6941 -0.993472 -0.621916 0.655506 -6.69357 11.6018 -27.2269 -2.64253 0.566363 2.4162 22.6624 6.19458 -14.3657 -1.39394 -0.635138 0.899356 39.7253 7.68604 -8.77027 -0.622395 -0.856016 0.402182 40.5678 7.77387 -9.00291 -3.20814 0.514427 1.52547 6.20246 0.646532 -2.1029 -1.56545 -0.497974 0.68919 51.7974 10.4666 -12.7907 -0.679943 -1.17582 0.444246 14.547 4.13124 -2.59421 -3.47877 0.200518 0.597719 13.4234 -1.35172 -5.37478 -1.28208 -0.53155 0.44672 20.461 6.18706 -4.84311 -0.710288 -0.970167 0.4032 22.0753 6.58733 -5.30759 -3.42483 -0.278904 -0.240415 -11.5768 -9.15204 -6.30978 -1.05787 -0.635999 0.156459 21.1476 6.99532 -4.85965 -0.42815 -0.754232 0.287187 10.7638 3.81198 -2.17123 1.4963 7.5744 -1.52136 5.13321 -1.48074 -15.5371 5.47506 -0.905672 0.485692 -58.9111 -1.77741 -59.4052 11.3069 -0.201091 0.618544 -22.3746 -28.486 -79.8553 9.61414 -0.254739 3.48553 -7.59251 22.9265 -28.5888 -0.176263 -0.07068 1.26622 24.2781 38.4816 -35.502 1.04683 -0.546484 1.82182 -6.53175 -1.24815 -11.4633 0.993472 -0.621916 0.655506 6.45121 2.66726 11.8095 2.64253 0.566363 2.4162 -5.18979 4.48316 12.5249 1.39394 -0.635138 0.899356 -36.9452 6.74326 17.0314 0.622395 -0.856016 0.402182 -38.0065 6.76576 17.556 3.20814 0.514427 1.52547 -1.48523 -0.683617 1.67102 1.56545 -0.497974 0.68919 -44.4871 8.35708 21.4001 0.679943 -1.17582 0.444246 -9.36072 3.19837 3.99259 3.47877 0.200518 0.597719 -8.07665 -2.6376 5.99018 1.28208 -0.53155 0.44672 -14.7811 5.15021 7.29473 0.710288 -0.970167 0.4032 -16.28 5.55275 8.08526 3.42483 -0.278904 -0.240415 11.7677 -11.303 2.60132 1.05787 -0.635999 0.156459 -18.896 6.82256 9.38286 0.42815 -0.754232 0.287187 -9.18838 3.76099 4.34944 -4.17848 -1.02486 0.046356 -30.4196 -16.6918 -8.78402 1.27155 -17.465 -0.237699 0.475805 -1.76401 4.60649 0.529163 -17.3815 -1.19582 14.86 22.2829 -3.5122 -0.711591 -4.4863 4.0596 1.31616 9.38506 -0.360765 4.17848 -1.02486 0.046356 41.8063 -40.2616 19.6268 -1.27155 -17.465 -0.237699 0.636885 24.8919 -1.97647 -0.529163 -17.3815 -1.19582 -9.81292 15.9094 -15.5654 0.711591 -4.4863 4.0596 0.192116 -1.59905 0.0662597 
-12.9661 6.67251 26.5947 10.5734 -65.1545 21.2957 0 5.99393 0.287273 0.00541623 -11.4294 0.633018 0 6.65865 -0.856112 0.147314 -22.858 1.30751 0 8.65624 -1.42685 0.546755 -1.44695 -5.12591 0 3.80999 -0.190247 18.2342 4.88114 -1.20237 -1.4963 7.5744 -1.52136 -21.2567 -0.110943 -1.90852 -5.47506 -0.905672 0.485692 58.0385 -3.60225 80.0829 -11.3069 -0.201091 0.618544 -2.77218 -6.01331 34.4604 -9.61414 -0.254739 3.48553 5.18516 -9.0943 37.6258 0.176263 -0.07068 1.26622 -19.5564 47.1207 31.2749 -1.04683 -0.546484 1.82182 4.64751 -3.91596 12.6941 -0.993472 -0.621916 0.655506 -6.69358 11.6018 -27.2269 -2.64253 0.566363 2.4162 22.6624 6.19458 -14.3658 -1.39394 -0.635138 0.899356 39.7253 7.68604 -8.77028 -0.622395 -0.856016 0.402182 40.5678 7.77387 -9.00291 -3.20814 0.514427 1.52547 6.20244 0.646566 -2.1029 -1.56545 -0.497974 0.68919 51.7974 10.4666 -12.7906 -0.679943 -1.17582 0.444246 14.547 4.13123 -2.59421 -3.47877 0.200518 0.597719 13.4234 -1.35175 -5.37479 -1.28208 -0.53155 0.44672 20.461 6.18708 -4.8431 -0.710288 -0.970167 0.4032 22.0752 6.58733 -5.30758 -3.42483 -0.278904 -0.240415 -11.5768 -9.15204 -6.30978 -1.05787 -0.635999 0.156459 21.1476 6.9953 -4.85964 -0.42815 -0.754232 0.287187 10.7638 3.81198 -2.17123 1.4963 7.5744 -1.52136 5.15889 -1.48541 -15.6845 5.47506 -0.905672 0.485692 -59.0364 -1.7043 -59.6627 11.3069 -0.201091 0.618544 -22.7609 -29.1496 -80.2132 9.61414 -0.254739 3.48553 -7.8657 23.6741 -28.4352 -0.176263 -0.07068 1.26622 24.2781 38.4816 -35.502 1.04683 -0.546484 1.82182 -6.53175 -1.24816 -11.4633 0.993472 -0.621916 0.655506 6.45119 2.66725 11.8095 2.64253 0.566363 2.4162 -5.18979 4.48314 12.5249 1.39394 -0.635138 0.899356 -36.9452 6.74326 17.0314 0.622395 -0.856016 0.402182 -38.0064 6.76575 17.556 3.20814 0.514427 1.52547 -1.48522 -0.683626 1.67102 1.56545 -0.497974 0.68919 -44.4871 8.3571 21.4001 0.679943 -1.17582 0.444246 -9.36073 3.19834 3.99259 3.47877 0.200518 0.597719 -8.07664 -2.63761 5.99018 1.28208 -0.53155 0.44672 -14.7811 5.15018 7.29472 0.710288 -0.970167 0.4032 -16.28 5.55274 8.08524 3.42483 -0.278904 -0.240415 11.7677 -11.303 2.60132 1.05787 -0.635999 0.156459 -18.896 6.82254 9.38286 0.42815 -0.754232 0.287187 -9.18835 3.76098 4.34944 -4.17848 -1.02486 0.046356 -29.9315 -16.3225 -8.59254 1.27155 -17.465 -0.237699 0.31317 -2.50714 4.6091 0.529163 -17.3815 -1.19582 14.9411 23.0474 -3.42738 -0.711591 -4.4863 4.0596 1.29891 9.2662 -0.354769 4.17848 -1.02486 0.046356 41.767 -40.5673 19.5117 -1.27155 -17.465 -0.237699 0.66747 25.7881 -2.208 -0.529163 -17.3815 -1.19582 -10.1072 15.9713 -15.6114 0.711591 -4.4863 4.0596 0.186147 -1.67358 0.0213434 
-12.924 6.65412 26.6498 10.8562 -65.4246 21.4171 3.55271e-015 5.99393 0.287273 0.116184 -11.2396 0.654387 0 6.65865 -0.856112 0.377556 -22.477 1.37353 -3.55271e-015 8.65624 -1.42685 0.594756 -1.88976 -4.80466 0 3.80999 -0.190247 18.5016 4.81753 -0.957572 -1.4963 7.5744 -1.52136 -21.402 -0.124146 -1.54003 -5.47506 -0.905672 0.485692 57.8961 -3.99763 80.363 -11.3069 -0.201091 0.618544 -2.31106 -6.57573 34.3115 -9.61414 -0.254739 3.48553 5.03176 -8.36814 37.5775 0.176263 -0.07068 1.26622 -19.5564 47.1207 31.2749 -1.04683 -0.546484 1.82182 4.64751 -3.91594 12.6941 -0.993472 -0.621916 0.655506 -6.69358 11.6018 -27.2268 -2.64253 0.566363 2.4162 22.6624 6.1946 -14.3658 -1.39394 -0.635138 0.899356 39.7253 7.68607 -8.77029 -0.622395 -0.856016 0.402182 40.5678 7.77386 -9.0029 -3.20814 0.514427 1.52547 6.20246 0.646583 -2.10291 -1.56545 -0.497974 0.68919 51.7974 10.4666 -12.7906 -0.679943 -1.17582 0.444246 14.547 4.13122 -2.59421 -3.47877 0.200518 0.597719 13.4234 -1.35176 -5.3748 -1.28208 -0.53155 0.44672 20.461 6.18712 -4.84309 -0.710288 -0.970167 0.4032 22.0752 6.58736 -5.30758 -3.42483 -0.278904 -0.240415 -11.5768 -9.15204 -6.30979 -1.05787 -0.635999 0.156459 21.1476 6.99533 -4.85965 -0.42815 -0.754232 0.287187 10.7638 3.81197 -2.17123 1.4963 7.5744 -1.52136 5.11633 -1.48978 -15.8542 5.47506 -0.905672 0.485692 -58.9899 -1.806 -59.8791 11.3069 -0.201091 0.618544 -23.3037 -29.7217 -80.7278 9.61414 -0.254739 3.48553 -8.05043 24.356 -28.1658 -0.176263 -0.07068 1.26622 24.2781 38.4817 -35.502 1.04683 -0.546484 1.82182 -6.53176 -1.24815 -11.4633 0.993472 -0.621916 0.655506 6.45119 2.66723 11.8095 2.64253 0.566363 2.4162 -5.1898 4.48313 12.5249 1.39394 -0.635138 0.899356 -36.9452 6.74326 17.0314 0.622395 -0.856016 0.402182 -38.0064 6.76573 17.556 3.20814 0.514427 1.52547 -1.48522 -0.683638 1.67103 1.56545 -0.497974 0.68919 -44.4871 8.35711 21.4001 0.679943 -1.17582 0.444246 -9.36073 3.19831 3.99261 3.47877 0.200518 0.597719 -8.07666 -2.63764 5.99018 1.28208 -0.53155 0.44672 -14.7811 5.15016 7.29474 0.710288 -0.970167 0.4032 -16.28 5.55275 8.08524 3.42483 -0.278904 -0.240415 11.7677 -11.303 2.60133 1.05787 -0.635999 0.156459 -18.896 6.82247 9.38288 0.42815 -0.754232 0.287187 -9.18836 3.76096 4.34946 -4.17848 -1.02486 0.046356 -29.4998 -15.9838 -8.40621 1.27155 -17.465 -0.237699 0.172823 -3.13823 4.56339 0.529163 -17.3815 -1.19582 15.0557 23.424 -4.10864 -0.711591 -4.4863 4.0596 1.33688 9.52807 -0.368025 4.17848 -1.02486 0.046356 41.6501 -41.0727 19.3532 -1.27155 -17.465 -0.237699 0.740707 27.0755 -2.47042 -0.529163 -17.3815 -1.19582 -10.3266 15.9016 -15.7231 0.711591 -4.4863 4.0596 0.173034 -1.76372 -0.0520143 
